REM DIRINDEX 1\6,1\2\7,1\2\8,1\2\9,1\3\10,1\3\11,1\4\12,1\4\13,1\4\14,1\5\15,1\5\16,1\5\17
REM DIRNAME cjc041,folder01,folder02,folder03,folder04,folder05,folder06,folder07,folder08,folder09,folder10,folder11,folder12,folder13,folder14,folder15,folder16
TITLE ""
FILE "3Q_t2_0632-0647.mp3" MP3
  TRACK 01 AUDIO
    TITLE "7:cjc041_5313"
    INDEX 01 00:00:00
  TRACK 02 AUDIO
    TITLE "0:"
    INDEX 01 00:01:03
  TRACK 03 AUDIO
    TITLE "8:cjc041_5314"
    INDEX 01 00:01:64
  TRACK 04 AUDIO
    TITLE "0:"
    INDEX 01 00:02:65
  TRACK 05 AUDIO
    TITLE "9:cjc041_5315"
    INDEX 01 00:03:41
  TRACK 06 AUDIO
    TITLE "0:"
    INDEX 01 00:04:56
  TRACK 07 AUDIO
    TITLE "7:cjc041_5316"
    INDEX 01 00:06:39
  TRACK 08 AUDIO
    TITLE "0:"
    INDEX 01 00:07:68
  TRACK 09 AUDIO
    TITLE "8:cjc041_5317"
    INDEX 01 00:08:44
  TRACK 10 AUDIO
    TITLE "0:"
    INDEX 01 00:10:19
  TRACK 11 AUDIO
    TITLE "9:cjc041_5318"
    INDEX 01 00:10:68
  TRACK 12 AUDIO
    TITLE "0:"
    INDEX 01 00:12:24
  TRACK 13 AUDIO
    TITLE "7:cjc041_5319"
    INDEX 01 00:14:06
  TRACK 14 AUDIO
    TITLE "0:"
    INDEX 01 00:15:36
  TRACK 15 AUDIO
    TITLE "8:cjc041_5320"
    INDEX 01 00:16:06
  TRACK 16 AUDIO
    TITLE "0:"
    INDEX 01 00:17:53
  TRACK 17 AUDIO
    TITLE "9:cjc041_5321"
    INDEX 01 00:18:31
  TRACK 18 AUDIO
    TITLE "0:"
    INDEX 01 00:19:58
  TRACK 19 AUDIO
    TITLE "7:cjc041_5322"
    INDEX 01 00:21:39
  TRACK 20 AUDIO
    TITLE "0:"
    INDEX 01 00:22:54
  TRACK 21 AUDIO
    TITLE "8:cjc041_5323"
    INDEX 01 00:23:32
  TRACK 22 AUDIO
    TITLE "0:"
    INDEX 01 00:26:42
  TRACK 23 AUDIO
    TITLE "9:cjc041_5324"
    INDEX 01 00:27:22
  TRACK 24 AUDIO
    TITLE "0:"
    INDEX 01 00:28:37
  TRACK 25 AUDIO
    TITLE "7:cjc041_5325"
    INDEX 01 00:30:14
  TRACK 26 AUDIO
    TITLE "0:"
    INDEX 01 00:31:27
  TRACK 27 AUDIO
    TITLE "8:cjc041_5326"
    INDEX 01 00:32:05
  TRACK 28 AUDIO
    TITLE "0:"
    INDEX 01 00:34:16
  TRACK 29 AUDIO
    TITLE "9:cjc041_5327"
    INDEX 01 00:34:69
  TRACK 30 AUDIO
    TITLE "0:"
    INDEX 01 00:36:07
  TRACK 31 AUDIO
    TITLE "7:cjc041_5328"
    INDEX 01 00:37:59
  TRACK 32 AUDIO
    TITLE "0:"
    INDEX 01 00:38:73
  TRACK 33 AUDIO
    TITLE "8:cjc041_5329"
    INDEX 01 00:39:52
  TRACK 34 AUDIO
    TITLE "0:"
    INDEX 01 00:41:16
  TRACK 35 AUDIO
    TITLE "9:cjc041_5330"
    INDEX 01 00:41:71
  TRACK 36 AUDIO
    TITLE "0:"
    INDEX 01 00:43:13
  TRACK 37 AUDIO
    TITLE "7:cjc041_5331"
    INDEX 01 00:44:69
  TRACK 38 AUDIO
    TITLE "0:"
    INDEX 01 00:46:09
  TRACK 39 AUDIO
    TITLE "8:cjc041_5332"
    INDEX 01 00:46:66
  TRACK 40 AUDIO
    TITLE "0:"
    INDEX 01 00:48:32
  TRACK 41 AUDIO
    TITLE "9:cjc041_5333"
    INDEX 01 00:49:12
  TRACK 42 AUDIO
    TITLE "0:"
    INDEX 01 00:50:31
  TRACK 43 AUDIO
    TITLE "7:cjc041_5334"
    INDEX 01 00:52:12
  TRACK 44 AUDIO
    TITLE "0:"
    INDEX 01 00:53:21
  TRACK 45 AUDIO
    TITLE "8:cjc041_5335"
    INDEX 01 00:54:01
  TRACK 46 AUDIO
    TITLE "0:"
    INDEX 01 00:55:50
  TRACK 47 AUDIO
    TITLE "9:cjc041_5336"
    INDEX 01 00:56:27
  TRACK 48 AUDIO
    TITLE "0:"
    INDEX 01 00:57:33
  TRACK 49 AUDIO
    TITLE "7:cjc041_5337"
    INDEX 01 00:59:18
  TRACK 50 AUDIO
    TITLE "0:"
    INDEX 01 01:00:31
  TRACK 51 AUDIO
    TITLE "8:cjc041_5338"
    INDEX 01 01:01:07
  TRACK 52 AUDIO
    TITLE "0:"
    INDEX 01 01:03:39
  TRACK 53 AUDIO
    TITLE "9:cjc041_5339"
    INDEX 01 01:04:19
  TRACK 54 AUDIO
    TITLE "0:"
    INDEX 01 01:05:28
  TRACK 55 AUDIO
    TITLE "7:cjc041_5340"
    INDEX 01 01:07:08
  TRACK 56 AUDIO
    TITLE "0:"
    INDEX 01 01:08:07
  TRACK 57 AUDIO
    TITLE "8:cjc041_5341"
    INDEX 01 01:08:62
  TRACK 58 AUDIO
    TITLE "0:"
    INDEX 01 01:10:37
  TRACK 59 AUDIO
    TITLE "9:cjc041_5342"
    INDEX 01 01:11:17
  TRACK 60 AUDIO
    TITLE "0:"
    INDEX 01 01:12:17
  TRACK 61 AUDIO
    TITLE "7:cjc041_5343"
    INDEX 01 01:14:06
  TRACK 62 AUDIO
    TITLE "0:"
    INDEX 01 01:15:09
  TRACK 63 AUDIO
    TITLE "8:cjc041_5344"
    INDEX 01 01:15:54
  TRACK 64 AUDIO
    TITLE "0:"
    INDEX 01 01:17:22
  TRACK 65 AUDIO
    TITLE "9:cjc041_5345"
    INDEX 01 01:18:04
  TRACK 66 AUDIO
    TITLE "0:"
    INDEX 01 01:19:03
  TRACK 67 AUDIO
    TITLE "7:cjc041_5346"
    INDEX 01 01:20:59
  TRACK 68 AUDIO
    TITLE "0:"
    INDEX 01 01:22:09
  TRACK 69 AUDIO
    TITLE "8:cjc041_5347"
    INDEX 01 01:22:56
  TRACK 70 AUDIO
    TITLE "0:"
    INDEX 01 01:26:58
  TRACK 71 AUDIO
    TITLE "9:cjc041_5348"
    INDEX 01 01:27:36
  TRACK 72 AUDIO
    TITLE "0:"
    INDEX 01 01:28:59
  TRACK 73 AUDIO
    TITLE "7:cjc041_5349"
    INDEX 01 01:30:40
  TRACK 74 AUDIO
    TITLE "0:"
    INDEX 01 01:31:45
  TRACK 75 AUDIO
    TITLE "8:cjc041_5350"
    INDEX 01 01:32:21
  TRACK 76 AUDIO
    TITLE "0:"
    INDEX 01 01:33:72
  TRACK 77 AUDIO
    TITLE "9:cjc041_5351"
    INDEX 01 01:34:50
  TRACK 78 AUDIO
    TITLE "0:"
    INDEX 01 01:35:57
  TRACK 79 AUDIO
    TITLE "7:cjc041_5352"
    INDEX 01 01:37:38
  TRACK 80 AUDIO
    TITLE "0:"
    INDEX 01 01:38:55
  TRACK 81 AUDIO
    TITLE "8:cjc041_5353"
    INDEX 01 01:39:31
  TRACK 82 AUDIO
    TITLE "0:"
    INDEX 01 01:41:07
  TRACK 83 AUDIO
    TITLE "9:cjc041_5354"
    INDEX 01 01:41:61
  TRACK 84 AUDIO
    TITLE "0:"
    INDEX 01 01:43:03
  TRACK 85 AUDIO
    TITLE "7:cjc041_5355"
    INDEX 01 01:44:58
  TRACK 86 AUDIO
    TITLE "0:"
    INDEX 01 01:46:00
  TRACK 87 AUDIO
    TITLE "8:cjc041_5356"
    INDEX 01 01:46:53
  TRACK 88 AUDIO
    TITLE "0:"
    INDEX 01 01:48:28
  TRACK 89 AUDIO
    TITLE "9:cjc041_5357"
    INDEX 01 01:49:04
  TRACK 90 AUDIO
    TITLE "0:"
    INDEX 01 01:50:23
  TRACK 91 AUDIO
    TITLE "7:cjc041_5358"
    INDEX 01 01:52:00
  TRACK 92 AUDIO
    TITLE "0:"
    INDEX 01 01:53:10
  TRACK 93 AUDIO
    TITLE "8:cjc041_5359"
    INDEX 01 01:53:67
  TRACK 94 AUDIO
    TITLE "0:"
    INDEX 01 01:54:68
  TRACK 95 AUDIO
    TITLE "9:cjc041_5360"
    INDEX 01 01:55:48
  TRACK 96 AUDIO
    TITLE "0:"
    INDEX 01 01:56:57
